<svg xmlns="http://www.w3.org/2000/svg" viewBox="0 0 273.49 193.66"><defs><style>.cls-1{fill:#03698f;fill-rule:evenodd;}</style></defs><title>CDAC</title><g id="Layer_2" data-name="Layer 2"><g id="Layer_1-2" data-name="Layer 1"><path class="cls-1" d="M31.86,135.47c.87-.08,1.73-.16,2.68-.16H58.06V129.9H34.54c-.95,0-1.81.08-2.68.16a29.22,29.22,0,0,0,0,58.12c.87.08,1.73.15,2.68.15H58.06v-5.4H34.54c-.95,0-1.81-.08-2.68-.16a23.84,23.84,0,0,1,0-47.3m0,58.12a34.74,34.74,0,0,1,0-69.25,25.88,25.88,0,0,1,2.68-.09H63.41v16.46H34.54a14.52,14.52,0,0,0-2.68.24A18.07,18.07,0,0,0,16.6,159.08,17.69,17.69,0,0,0,31.86,177a14.51,14.51,0,0,0,2.68.25H63.41v16.45H34.54C33.59,193.66,32.73,193.66,31.86,193.59Zm52.9-22.79h-16v22.86H97.64a34.71,34.71,0,0,0,0-69.41H68.76v16.46H97.64a18.07,18.07,0,0,1,17.86,18.37,17.81,17.81,0,0,1-17.86,18.13H84.76Zm0-7.43h-16v4.16h16Zm0-6.48h-16v3.24h16Zm0-5.51h-16v2.27h16Zm0-4.68h-16v1.44h16ZM159,160.8V177h-6.13v16.62H136.63V158.76a34.34,34.34,0,1,1,68.68,0v34.82H189V158.76a18.07,18.07,0,0,0-17.93-18.36,18.32,18.32,0,0,0-18.18,18.36v2Zm7.36,0V177h-4.11V160.8Zm6.41,0V177h-3.2V160.8Zm5.46,0V177H176V160.8Zm4.63,0V177h-1.43V160.8ZM273.49,42.3V33.09h-94L160.9,0,150.26,5.54l23.38,27.55h-9.35L141.87,11.57,137,21l20.16,12.06H118.24V42.3h51.45V51H147.75a7,7,0,0,0-6.85,6.85c0,10.18,13.79,21.92,19.19,21.92,4.68,0,9.6-2,11.46-2.69,2.74-1.3,3.87.57,3.87,3.91,0,7.75-3.87,12.31-10.25,12.31-17.42,0-33.79-29-33.79-29.26l-7.5,7c0,.73,18.31,30.57,40.73,30.57,7.66,0,22.1-3.43,22.1-20.63,0-6.92-2.83-13.77-9-13.77-5,0-8.79,3.1-14.52,3.1-3.39,0-8.23-6-9.35-7.83-1.94-3,1.12-3,1.44-3h25.81V42.3H224.7V74.09c0,.16-3.87,6.6-10.81,6.6-5.49,0-9.2-4-9.2-11,0-11.49,15.17-10.35,15.17-10.35l-2.58-9.46c-.08,0-23.8-.9-23.8,20.05,0,12.8,8.8,20.37,19.68,20.37a22.27,22.27,0,0,0,11.54-3.74v16.62h11.77V71.48c0-.25,3.79-8.31,10.81-8.31,5.89,0,8.06,4.32,8.06,9.94,0,9.86-10.64,18.58-10.8,18.58l8.63,6.6c.16,0,13.79-12.14,13.79-25.75a18.49,18.49,0,0,0-18.31-18.67A17,17,0,0,0,236.47,59V42.3Zm-184,33.25H101.3v4.16H89.44Zm0-8.55H101.3v4.23H89.44ZM67.34,36.92l-1.85-1.38c-5.57-4.81-9.12-12.8-6.45-20.06a11,11,0,0,1,2.9-4A11.75,11.75,0,0,1,67,9.13a17.14,17.14,0,0,1,2.75-.33l2.17.08a20.94,20.94,0,0,1,4.52,1l2.74,1.31,3.47,2.44c1,1,1.93,2,2.9,2.94a46.6,46.6,0,0,1,4.68,7.33A43.57,43.57,0,0,1,93.47,32l1.14,4.89ZM64.12,99.35h4.27V41.16H93.31V58.84h4.28V41.16h8.79V36.92H98.72l-.49-3.51A55.52,55.52,0,0,0,94,21.6a55.06,55.06,0,0,0-4.36-6.84l-2.25-2.53a39.49,39.49,0,0,0-4-3.35l-3-1.71L77.1,5.79l-3.79-.9a45,45,0,0,0-5.8-.24,14.17,14.17,0,0,0-5.73,1.79l-1.05.65a15,15,0,0,0-5.89,8.32,16.45,16.45,0,0,0-.4,1.95A30.82,30.82,0,0,0,54.76,26c1,3.83,3.87,7.74,6.29,10.92H3.79v4.24H32.91c0,4.89-.09,9.78,0,14.59v.57c-.17,3.75-1.54,6.85-5,8.55l-1.36.5a11.44,11.44,0,0,1-4,.08,14.18,14.18,0,0,1-2.26-1,19.81,19.81,0,0,1-6.37-6.85l-3.55,2.29c3.87,6.76,7.91,13.36,12.34,19.72,4.44,6.19,9,12.31,13.63,18.26l4-2.85c-3.46-3.84-6.85-7.75-9.92-11.91-1.13-1.46-2.17-3-3.22-4.56a31.84,31.84,0,0,1-2.34-3.5l-2.5-4.32.73-.57c5.48-.66,12.42-3.75,13.79-9.78A10.58,10.58,0,0,0,37,58.11v-17h27.1V63.25H47.18v4.24H64.12ZM93.31,87.86V99.35h4.28V87.86ZM68.63,33.09c-3.54-2.61-6.69-7.58-6.69-12.39,0-5.94,3.71-8.07,8.39-8.07,14,0,19.44,20.3,19.44,20.46Zm3.55,12H89.52V62.68h11.94V45.07h8.79v-12H102C102.1,32.93,96.22.65,69,.74,59.2.74,52,7.74,50.65,16.87,50,25.35,51,28.61,53.88,33.09H0v12H29V55.26c0,.32.57,6.52-4.75,6.52-4.6,0-9-9.46-9-9.62L5.24,58.6c0,.16,6.37,11.65,12.58,20.78,9.28,13.37,17.59,23.56,17.74,23.8L46,95.61c-.16-.33-6.13-6.61-10.48-12.07-3-3.75-7.27-10-7.27-10.11a66.15,66.15,0,0,0,8.07-5.21c3.23-2.69,4.52-6.12,4.52-10.43V45.07H60.25V59.34H43.39v12H60.25v31.79H72.18ZM101.46,84H89.52v19.23h11.94ZM244.62,193.66a34.71,34.71,0,0,1,0-69.41h28.87v16.46H244.62a18.34,18.34,0,0,0-18.18,18.37,18.08,18.08,0,0,0,18.18,18.13h28.87v16.45Z"/></g></g></svg>