<svg xmlns="http://www.w3.org/2000/svg" width="295.304" height="73.031"><defs><style>.prefix__cls-2{fill:#b7202e}</style></defs><g id="prefix__Group_6874" data-name="Group 6874" transform="translate(-18 -1030)"><path id="prefix__Line_858" d="M98.444 1083.99h167.17" data-name="Line 858" fill="none" stroke="#58595b" stroke-miterlimit="10" stroke-width=".75"/><path id="prefix__Path_11761" d="M84.39 44.66l-3.06-8.23-.8-.11v-.99h3.39v.99l-.84.14 1.94 5.68.17.61h.04l.18-.6 1.97-5.7-.97-.13v-.99h3.29v.99l-.81.11-2.94 8.23z" class="prefix__cls-2" data-name="Path 11761" transform="translate(17.914 1030)"/><path id="prefix__Path_11762" d="M90.42 44.66v-.99l1.02-.19v-6.96l-1.02-.2v-.99h3.65v.99l-1.01.2v6.96l1.01.19v.99z" class="prefix__cls-2" data-name="Path 11762" transform="translate(17.914 1030)"/><path id="prefix__Path_11763" d="M94.92 44.66v-1l1-.2v-6.93l-1-.21v-1h3.91a3.957 3.957 0 013.66 2.21 5.17 5.17 0 01.52 2.37v.18a5.24 5.24 0 01-.51 2.35 4 4 0 01-1.45 1.63 3.9 3.9 0 01-2.17.59zm2.64-1.24h1.23a2.25 2.25 0 001.4-.44 2.7 2.7 0 00.89-1.19 4.4 4.4 0 00.31-1.7v-.19a4.35 4.35 0 00-.31-1.71 2.67 2.67 0 00-.89-1.18 2.24 2.24 0 00-1.4-.43h-1.23z" class="prefix__cls-2" data-name="Path 11763" transform="translate(17.914 1030)"/><path id="prefix__Path_11764" d="M106.06 44.66v-.99l1.01-.19v-2.1l-2.81-4.93-.84-.13v-.99h3.51v.99l-.89.12 1.73 3.27.14.28.02-.01.14-.26 1.87-3.28-1.06-.12v-.99h3.44v.99l-.87.13-2.77 4.8v2.23l1.02.19v.99z" class="prefix__cls-2" data-name="Path 11764" transform="translate(17.914 1030)"/><path id="prefix__Path_11765" d="M111.34 44.66v-1l.68-.1 3.09-8.25h1.57l3 8.25.68.1v1h-3v-1l.66-.13-.49-1.46h-3.47l-.51 1.46.67.13v1zm3.23-3.81h2.63l-1.2-3.46-.08-.25-.09.27z" class="prefix__cls-2" data-name="Path 11765" transform="translate(17.914 1030)"/><path id="prefix__Path_11766" d="M123.43 44.66l-3.06-8.23-.8-.11v-.99h3.39v.99l-.84.14 1.94 5.68.17.61h.04l.18-.6 1.97-5.7-.97-.13v-.99h3.29v.99l-.81.11-2.94 8.23z" class="prefix__cls-2" data-name="Path 11766" transform="translate(17.914 1030)"/><path id="prefix__Path_11767" d="M129.46 44.66v-.99l1.02-.19v-6.96l-1.02-.2v-.99h3.65v.99l-1.01.2v6.96l1.01.19v.99z" class="prefix__cls-2" data-name="Path 11767" transform="translate(17.914 1030)"/><path id="prefix__Path_11768" d="M133.96 44.66v-.99l1.02-.19v-6.96l-1.02-.2v-.99h3.66v.99l-1.02.2v2.91h4.08v-2.91l-1.02-.2v-.99h3.65v.99l-1.02.2v6.96l1.02.19v.99h-3.65v-.99l1.02-.19v-2.8h-4.08v2.8l1.02.19v.99z" class="prefix__cls-2" data-name="Path 11768" transform="translate(17.914 1030)"/><path id="prefix__Path_11769" d="M143.72 44.66v-1l.68-.1 3.09-8.25h1.57l3.05 8.25.68.1v1h-3v-1l.67-.13-.5-1.46h-3.47l-.49 1.48.67.13v1zm3.22-3.81h2.64l-1.21-3.46-.09-.25-.09.27z" class="prefix__cls-2" data-name="Path 11769" transform="translate(17.914 1030)"/><path id="prefix__Path_11770" d="M153.55 44.66v-1l1-.19v-7l-1-.19v-1h4.31a4.63 4.63 0 011.8.32 2.55 2.55 0 011.13.93 2.62 2.62 0 01.39 1.45 2.65 2.65 0 01-.38 1.43 2.53 2.53 0 01-1.09.95 3.91 3.91 0 01-1.63.35h-1.9v2.7l1 .19v1zm2.63-5.14h1.61a2 2 0 001.35-.37 1.31 1.31 0 00.43-1.07 1.44 1.44 0 00-.42-1.09 1.75 1.75 0 00-1.29-.41h-1.68zm3.44 5.14l-1.78-4.29 1.51-.25 1.51 3.39.73.15v1z" class="prefix__cls-2" data-name="Path 11770" transform="translate(17.914 1030)"/><path id="prefix__Path_11771" d="M170.24 44.8a4.34 4.34 0 01-1.85-.38 2.94 2.94 0 01-1.26-1.1 3.22 3.22 0 01-.45-1.74v-5.06l-1-.2v-1h3.64v1l-1 .2v5.06a2.28 2.28 0 00.24 1.09 1.52 1.52 0 00.68.65 2.28 2.28 0 001 .22 2.32 2.32 0 001.05-.22 1.5 1.5 0 00.69-.65 2.14 2.14 0 00.25-1.09v-5.06l-1-.2v-1h3.65v1l-1 .2v5.06a3.23 3.23 0 01-.45 1.75 2.86 2.86 0 01-1.26 1.09 4.54 4.54 0 01-1.9.38" class="prefix__cls-2" data-name="Path 11771" transform="translate(17.914 1030)"/><path id="prefix__Path_11772" d="M175.63 44.66v-.99l1.02-.19v-6.96l-1.02-.2v-.99h2.65l4.28 6.81.04-.01v-5.61l-1.17-.2v-.99h3.65v.99l-1.02.2v8.14h-1.53l-4.39-6.79-.04.01v5.6l1.18.19v.99z" class="prefix__cls-2" data-name="Path 11772" transform="translate(17.914 1030)"/><path id="prefix__Path_11773" d="M185.87 44.66v-.99l1.02-.19v-6.96l-1.02-.2v-.99h3.65v.99l-1.01.2v6.96l1.01.19v.99z" class="prefix__cls-2" data-name="Path 11773" transform="translate(17.914 1030)"/><path id="prefix__Path_11774" d="M194.1 44.66l-3.06-8.23-.79-.11v-.99h3.39v.99l-.84.14 1.94 5.68.17.61h.04l.18-.6 1.97-5.7-.97-.13v-.99h3.29v.99l-.81.11-2.94 8.23z" class="prefix__cls-2" data-name="Path 11774" transform="translate(17.914 1030)"/><path id="prefix__Path_11775" d="M200.14 44.66v-.99l1.02-.19v-6.96l-1.02-.2v-.99h7.11v2.4h-1.26l-.11-1.16h-3.1v2.64h3.27v1.25h-3.27v2.97h3.28l.1-1.18h1.25v2.41z" class="prefix__cls-2" data-name="Path 11775" transform="translate(17.914 1030)"/><path id="prefix__Path_11776" d="M208.52 44.66v-1l1-.19v-7l-1-.19v-1h4.31a4.63 4.63 0 011.8.32 2.55 2.55 0 011.13.93 2.62 2.62 0 01.39 1.45 2.54 2.54 0 01-1.47 2.38 3.91 3.91 0 01-1.63.35h-1.9v2.7l1 .19v1zm2.63-5.14h1.61a2 2 0 001.35-.37 1.31 1.31 0 00.43-1.07 1.44 1.44 0 00-.42-1.09 1.75 1.75 0 00-1.29-.41h-1.68zm3.44 5.14l-1.78-4.29 1.51-.25 1.51 3.39.73.15v1z" class="prefix__cls-2" data-name="Path 11776" transform="translate(17.914 1030)"/><path id="prefix__Path_11777" d="M221.1 44.8a6.33 6.33 0 01-1.78-.24 5.37 5.37 0 01-1.59-.79v-2.15H219l.2 1.4a3 3 0 00.84.39 4.09 4.09 0 001.08.14 2.47 2.47 0 001-.16 1.31 1.31 0 00.59-.46 1.16 1.16 0 00.21-.7 1.23 1.23 0 00-.18-.66 1.55 1.55 0 00-.6-.51 4.909 4.909 0 00-1.13-.42 7.63 7.63 0 01-1.74-.67 2.85 2.85 0 01-1.06-.92 2.25 2.25 0 01-.36-1.27 2.28 2.28 0 01.41-1.33 2.78 2.78 0 011.13-.91 4.14 4.14 0 011.61-.34 5.21 5.21 0 011.84.27 4.36 4.36 0 011.35.74v2H223l-.24-1.3a2.27 2.27 0 00-.68-.32 3.26 3.26 0 00-1-.13 2.13 2.13 0 00-.86.16 1.4 1.4 0 00-.58.45 1.15 1.15 0 00-.21.69 1.05 1.05 0 00.18.62 1.59 1.59 0 00.62.48 8 8 0 001.18.43 5.48 5.48 0 012.31 1.12 2.34 2.34 0 01.78 1.81 2.26 2.26 0 01-.42 1.36 2.86 2.86 0 01-1.18.9 4.64 4.64 0 01-1.78.32" class="prefix__cls-2" data-name="Path 11777" transform="translate(17.914 1030)"/><path id="prefix__Path_11778" d="M225.36 44.66v-.99l1.02-.19v-6.96l-1.02-.2v-.99h3.65v.99l-1.01.2v6.96l1.01.19v.99z" class="prefix__cls-2" data-name="Path 11778" transform="translate(17.914 1030)"/><path id="prefix__Path_11779" d="M232.08 44.66v-.99l1.02-.19v-6.91h-1.88l-.14 1.19h-1.21v-2.43h8.08v2.43h-1.22l-.14-1.19h-1.88v6.91l1.02.19v.99z" class="prefix__cls-2" data-name="Path 11779" transform="translate(17.914 1030)"/><path id="prefix__Path_11780" d="M241.44 44.66v-.99l1.01-.19v-2.1l-2.81-4.93-.84-.13v-.99h3.51v.99l-.89.12 1.73 3.27.14.28.02-.01.14-.26 1.87-3.28-1.06-.12v-.99h3.45v.99l-.88.13-2.77 4.8v2.23l1.02.19v.99z" class="prefix__cls-2" data-name="Path 11780" transform="translate(17.914 1030)"/><path id="prefix__Path_11781" d="M89.87 29.29a17.58 17.58 0 01-4.87-.66 14.9 14.9 0 01-4.42-2.18V20.5H84l.57 3.85a7.67 7.67 0 002.32 1.08 10.15 10.15 0 003 .41 6.85 6.85 0 002.65-.45 3.409 3.409 0 001.71-5.03 4.32 4.32 0 00-1.65-1.43 14.43 14.43 0 00-3.12-1.16 22.19 22.19 0 01-4.84-1.85 8.07 8.07 0 01-2.93-2.56 6.25 6.25 0 01-1-3.51 6.14 6.14 0 011.13-3.67A7.52 7.52 0 0185 3.66a11.22 11.22 0 014.63-1 14.82 14.82 0 015.09.75 12.09 12.09 0 013.73 2v5.56H95l-.64-3.62a6.4 6.4 0 00-1.89-.88 9.22 9.22 0 00-2.74-.37 5.91 5.91 0 00-2.38.45 3.76 3.76 0 00-1.61 1.25 3.19 3.19 0 00-.59 1.92 2.84 2.84 0 00.52 1.71 4.49 4.49 0 001.72 1.32A20.19 20.19 0 0090.68 14a15.08 15.08 0 016.38 3.09 6.49 6.49 0 012.16 5 6.22 6.22 0 01-1.16 3.76 7.45 7.45 0 01-3.27 2.49 12.6 12.6 0 01-4.92.89" class="prefix__cls-2" data-name="Path 11781" transform="translate(17.914 1030)"/><path id="prefix__Path_11782" d="M113 29.29a10.93 10.93 0 01-4.65-1 10.32 10.32 0 01-3.56-2.72 12.5 12.5 0 01-2.28-4.16 16.61 16.61 0 01-.8-5.25v-.36a16.55 16.55 0 01.8-5.24 12.5 12.5 0 012.28-4.16 10.26 10.26 0 013.56-2.74 10.9 10.9 0 014.63-1 11.24 11.24 0 014.74 1 10.11 10.11 0 013.57 2.74 12.44 12.44 0 012.25 4.16 16.84 16.84 0 01.78 5.24v.39a16.9 16.9 0 01-.78 5.25 12.44 12.44 0 01-2.25 4.16 10.17 10.17 0 01-3.57 2.72 11.18 11.18 0 01-4.72 1m0-3.55a6 6 0 003.86-1.2 7.07 7.07 0 002.25-3.35 15.17 15.17 0 00.74-5v-.43a15.16 15.16 0 00-.74-4.95 7.24 7.24 0 00-2.27-3.34A6 6 0 00113 6.26a5.81 5.81 0 00-3.74 1.21 7.33 7.33 0 00-2.28 3.34 14.88 14.88 0 00-.76 4.95v.43a15.13 15.13 0 00.76 5 7.18 7.18 0 002.29 3.36 5.85 5.85 0 003.75 1.2" class="prefix__cls-2" data-name="Path 11782" transform="translate(17.914 1030)"/><path id="prefix__Path_11783" d="M126.74 28.91v-2.73l2.8-.53V6.35l-2.8-.53V3.07h9.21l7.58 18.69h.1l7.35-18.69h9.32v2.75l-2.82.53v19.3l2.82.53v2.73h-10.1v-2.73l2.97-.53v-6.02l.03-11.31-.09-.01-8 20.02h-3.25l-8.24-19.92-.09.02.23 10.9v6.32l3.08.53v2.73z" class="prefix__cls-2" data-name="Path 11783" transform="translate(17.914 1030)"/><path id="prefix__Path_11784" d="M161.47 28.91v-2.73l1.89-.27 8.55-22.84h4.35l8.45 22.84 1.88.27v2.73h-8.22v-2.73l1.85-.34-1.37-4.06h-9.62l-1.4 4.06 1.86.34v2.73zm8.93-10.56h7.3l-3.36-9.56-.23-.7H174l-.24.73z" class="prefix__cls-2" data-name="Path 11784" transform="translate(17.914 1030)"/><path id="prefix__Path_11785" d="M188.7 28.91v-2.73l2.83-.53V6.35l-2.83-.53V3.07h10.1v2.75l-2.8.53v19.3l2.8.53v2.73z" class="prefix__cls-2" data-name="Path 11785" transform="translate(17.914 1030)"/><path id="prefix__Path_11786" d="M207.94 28.91v-2.73l2.81-.53v-5.82l-7.78-13.66-2.34-.35V3.07h9.73v2.75l-2.47.32 4.79 9.05.39.78.07-.03.38-.73 5.18-9.07-2.93-.32V3.07h9.53v2.75l-2.43.35-7.67 13.3v6.18l2.83.53v2.73z" class="prefix__cls-2" data-name="Path 11786" transform="translate(17.914 1030)"/><path id="prefix__Path_11787" d="M222.59 28.91v-2.73l1.88-.27L233 3.07h4.34l8.45 22.84 1.88.27v2.73h-8.21v-2.73l1.84-.34-1.3-4.06h-9.63l-1.4 4.06 1.87.34v2.73zm8.93-10.56h7.29l-3.35-9.56-.23-.7h-.11l-.25.73z" class="prefix__cls-2" data-name="Path 11787" transform="translate(17.914 1030)"/><path id="prefix__Path_11848" d="M2.555-2.25l-.773-.891 4.124-4.382.018-.023-.756-.076v-.908H8.35v.908l-.8.158zM.387 0v-.9l.932-.176v-6.371l-.932-.176v-.908H3.7v.908l-.9.176v6.369l.9.178V0zm4.968 0v-.9l.756-.076v-.008L3.861-4.09l.926-1.037L7.84-1.049l.814.149V0zm9.668.123a3.389 3.389 0 01-1.444-.293 2.3 2.3 0 01-1-.894 3.05 3.05 0 01-.407-1.509l.012-.035h1.4a1.834 1.834 0 00.381 1.21 1.261 1.261 0 00.955.36 1.3 1.3 0 00.691-.176 1.133 1.133 0 00.439-.5 1.852 1.852 0 00.15-.786v-4.947l-1.143-.17v-.914h3.551v.908l-.937.176V-2.5a3 3 0 01-.3 1.389 2.135 2.135 0 01-.894.914 2.987 2.987 0 01-1.454.32zm10.5 0A5.823 5.823 0 0123.9-.094a4.835 4.835 0 01-1.459-.721v-1.962h1.143l.188 1.271a2.547 2.547 0 00.765.357 3.457 3.457 0 00.987.135 2.26 2.26 0 00.876-.149 1.213 1.213 0 00.542-.419 1.09 1.09 0 00.188-.639 1.119 1.119 0 00-.164-.6 1.424 1.424 0 00-.546-.479 4.831 4.831 0 00-1.031-.384 7.308 7.308 0 01-1.6-.609 2.653 2.653 0 01-.967-.844 2.056 2.056 0 01-.325-1.16 2.051 2.051 0 01.372-1.213 2.521 2.521 0 011.034-.832 3.684 3.684 0 011.529-.311 4.845 4.845 0 011.679.246 4.022 4.022 0 011.233.674v1.834h-1.115l-.211-1.2a2.24 2.24 0 00-.624-.29 3.044 3.044 0 00-.905-.12 1.969 1.969 0 00-.785.146 1.254 1.254 0 00-.533.413 1.054 1.054 0 00-.193.636.949.949 0 00.17.563 1.481 1.481 0 00.568.437 6.925 6.925 0 001.078.4 5.011 5.011 0 012.1 1.02 2.143 2.143 0 01.715 1.658 2.058 2.058 0 01-.384 1.239 2.484 2.484 0 01-1.078.823 4.16 4.16 0 01-1.624.297zm6.861 0a2.9 2.9 0 01-1.57-.41 2.686 2.686 0 01-1.008-1.14 3.822 3.822 0 01-.352-1.679v-.123a3.789 3.789 0 01.352-1.67 2.729 2.729 0 011.008-1.143 2.849 2.849 0 011.559-.416 2.887 2.887 0 011.57.413A2.709 2.709 0 0134.951-4.9a3.8 3.8 0 01.349 1.671v.123a3.822 3.822 0 01-.352 1.679 2.692 2.692 0 01-1 1.14 2.877 2.877 0 01-1.563.41zm0-1.137a1.223 1.223 0 00.816-.266 1.594 1.594 0 00.478-.738 3.416 3.416 0 00.158-1.087v-.123a3.368 3.368 0 00-.158-1.078 1.6 1.6 0 00-.48-.738 1.235 1.235 0 00-.82-.27 1.218 1.218 0 00-.809.27 1.584 1.584 0 00-.478.738 3.427 3.427 0 00-.155 1.078v.123a3.475 3.475 0 00.155 1.087 1.555 1.555 0 00.48.738 1.247 1.247 0 00.814.266zM36.082 0v-.9l.885-.176v-4.18l-.932-.176v-.908h2.285l.07.832a2.182 2.182 0 01.776-.7 2.259 2.259 0 011.081-.249 1.957 1.957 0 011.063.278 1.72 1.72 0 01.671.841 2.242 2.242 0 01.771-.82 2.071 2.071 0 011.122-.3 1.86 1.86 0 011.5.65 3 3 0 01.548 1.969v2.76l.885.176V0h-3.19v-.9l.832-.176v-2.768a1.784 1.784 0 00-.27-1.125.973.973 0 00-.791-.322 1.089 1.089 0 00-.8.311 1.482 1.482 0 00-.407.791v3.111l.8.176V0h-3.073v-.9l.8-.176v-2.768a1.763 1.763 0 00-.275-1.11.97.97 0 00-.8-.337 1.406 1.406 0 00-.729.176 1.275 1.275 0 00-.472.5v3.539l.826.176V0zm13.512.123a2.136 2.136 0 01-1.506-.5 1.774 1.774 0 01-.539-1.371 1.736 1.736 0 01.328-1.049 2.136 2.136 0 01.961-.706 4.112 4.112 0 011.535-.255h.967v-.533a1.079 1.079 0 00-.3-.8 1.193 1.193 0 00-.876-.3 1.938 1.938 0 00-.58.079 1.527 1.527 0 00-.451.226L49-4.23h-1.088L47.9-5.795a4.183 4.183 0 011.043-.483 4.286 4.286 0 011.277-.179 2.927 2.927 0 011.9.565 1.969 1.969 0 01.694 1.62v3.047q0 .123.015.24l.645.082V0h-1.923q-.059-.205-.108-.4a2.993 2.993 0 01-.073-.387 2.621 2.621 0 01-.765.653 2.008 2.008 0 01-1.011.257zm.334-1.143a1.73 1.73 0 00.832-.208 1.479 1.479 0 00.58-.524v-1.06h-.984a1.436 1.436 0 00-1 .308.945.945 0 00-.337.718.7.7 0 00.234.568 1.013 1.013 0 00.675.198zM54.158 0v-.9l.879-.176v-4.18l-.932-.176v-.908h2.408v5.262l.873.176V0zm.82-7.775v-1.366h1.535v1.365zm4.67 10.336a2.9 2.9 0 01-.419-.035 2.964 2.964 0 01-.413-.088l.164-1.108q.105.018.255.029t.237.012a.884.884 0 00.621-.231A1.669 1.669 0 0060.5.5l.193-.51-2.164-5.316-.738-.105v-.909h3.07v.908l-.779.117 1.1 2.953.193.551h.035l1.3-3.51-.779-.111v-.908h2.912v.908l-.686.1L61.705.955a3.794 3.794 0 01-.437.812 1.911 1.911 0 01-.656.58 2 2 0 01-.964.214zM67.359.123a2.136 2.136 0 01-1.506-.5 1.774 1.774 0 01-.539-1.371 1.736 1.736 0 01.328-1.049A2.136 2.136 0 0166.6-3.5a4.112 4.112 0 011.535-.255h.967v-.533a1.079 1.079 0 00-.3-.8 1.193 1.193 0 00-.876-.3 1.938 1.938 0 00-.58.079 1.527 1.527 0 00-.451.226l-.135.855h-1.082l-.012-1.564a4.183 4.183 0 011.043-.483 4.286 4.286 0 011.277-.179 2.927 2.927 0 011.9.565 1.969 1.969 0 01.694 1.62v3.047q0 .123.015.24l.645.082V0h-1.924q-.059-.205-.108-.4a2.993 2.993 0 01-.073-.387 2.621 2.621 0 01-.765.653 2.008 2.008 0 01-1.011.257zm.334-1.143a1.73 1.73 0 00.832-.208 1.479 1.479 0 00.58-.524v-1.06h-.984a1.436 1.436 0 00-1 .308.945.945 0 00-.337.718.7.7 0 00.234.568 1.013 1.013 0 00.675.198zM74.918 0v-.9l.932-.176v-6.371l-.932-.176v-.908h3.334v.908l-.926.176v6.369l.926.176V0zM79 0v-.9l.879-.176v-4.18l-.926-.176v-.908h2.287l.076.92a2.3 2.3 0 01.788-.765 2.1 2.1 0 011.069-.272 1.952 1.952 0 011.523.6 2.734 2.734 0 01.545 1.878v2.9l.879.176V0h-3.181v-.9l.826-.176v-2.891a1.464 1.464 0 00-.287-1.022 1.127 1.127 0 00-.855-.3 1.431 1.431 0 00-.747.19 1.468 1.468 0 00-.519.53v3.492l.8.176V0zm10.443.123a5.8 5.8 0 01-1.269-.132 6.524 6.524 0 01-1.18-.391l-.018-1.676h1.061l.223.914a2.886 2.886 0 00.519.173 2.65 2.65 0 00.595.062 1.387 1.387 0 00.894-.223.7.7 0 00.261-.551.682.682 0 00-.272-.542 2.592 2.592 0 00-1.04-.39 3.728 3.728 0 01-1.673-.718 1.558 1.558 0 01-.536-1.228 1.676 1.676 0 01.278-.943A1.94 1.94 0 0188.1-6.2a3.121 3.121 0 011.333-.255 4.978 4.978 0 011.28.149 3.474 3.474 0 01.952.4l.035 1.611h-1.044l-.182-.838a1.4 1.4 0 00-.422-.2A1.964 1.964 0 0089.5-5.4a1.24 1.24 0 00-.768.214.649.649 0 00-.281.536.651.651 0 00.091.34.8.8 0 00.352.278 3.853 3.853 0 00.765.243 4.2 4.2 0 011.77.75 1.542 1.542 0 01.533 1.225 1.772 1.772 0 01-.621 1.395 2.817 2.817 0 01-1.898.542zM95.2.111a1.7 1.7 0 01-1.26-.454 1.994 1.994 0 01-.451-1.45v-3.492h-.926V-6.34h.926v-1.541h1.471v1.541h1.254v1.055h-1.251v3.492a.862.862 0 00.167.589.582.582 0 00.454.185 2.575 2.575 0 00.366-.029q.2-.029.325-.059l.153 1.037a4.7 4.7 0 01-.589.129 4.043 4.043 0 01-.639.052zM97.148 0v-.9l.879-.176v-4.18l-.927-.176v-.908h2.4v5.262l.873.176V0zm.82-7.775v-1.366H99.5v1.365zM103.43.111a1.7 1.7 0 01-1.26-.454 1.994 1.994 0 01-.451-1.45v-3.492h-.926V-6.34h.926v-1.541h1.471v1.541h1.254v1.055h-1.254v3.492a.862.862 0 00.167.589.582.582 0 00.454.185 2.575 2.575 0 00.366-.029q.2-.029.325-.059l.152 1.037a4.7 4.7 0 01-.589.129 4.043 4.043 0 01-.635.052zm4.641.012a2.011 2.011 0 01-1.591-.647 2.984 2.984 0 01-.571-2.013v-2.719l-.715-.176v-.908h2.191v3.814a1.91 1.91 0 00.261 1.151.963.963 0 00.806.331 1.637 1.637 0 00.817-.19 1.4 1.4 0 00.536-.542v-3.48l-.8-.176v-.908h2.273v5.262l.75.176V0h-2.057l-.1-.861a2.084 2.084 0 01-.759.729 2.121 2.121 0 01-1.042.255zm7.049-.012a1.7 1.7 0 01-1.26-.454 1.994 1.994 0 01-.451-1.45v-3.492h-.926V-6.34h.926v-1.541h1.471v1.541h1.254v1.055h-1.254v3.492a.862.862 0 00.167.589.582.582 0 00.454.185 2.575 2.575 0 00.366-.029q.2-.029.325-.059l.152 1.037a4.7 4.7 0 01-.589.129 4.043 4.043 0 01-.636.052zm4.746.012a2.964 2.964 0 01-1.562-.4 2.734 2.734 0 01-1.031-1.11 3.486 3.486 0 01-.366-1.623v-.246a3.651 3.651 0 01.36-1.649 2.832 2.832 0 01.993-1.137 2.578 2.578 0 011.441-.413 2.789 2.789 0 011.444.346 2.2 2.2 0 01.882.981 3.564 3.564 0 01.3 1.526v.844h-3.891l-.012.029a2.285 2.285 0 00.208.885 1.459 1.459 0 00.527.609 1.5 1.5 0 00.835.223 2.952 2.952 0 00.938-.141 2.882 2.882 0 00.779-.4l.463.926a3.212 3.212 0 01-.955.533 3.858 3.858 0 01-1.354.217zM118.459-3.8h2.455v-.152a1.947 1.947 0 00-.126-.729 1.029 1.029 0 00-.393-.489 1.206 1.206 0 00-.677-.176 1.026 1.026 0 00-.627.2 1.4 1.4 0 00-.431.542 2.65 2.65 0 00-.22.776zM129.076.123a2.9 2.9 0 01-1.57-.41 2.686 2.686 0 01-1.008-1.14 3.822 3.822 0 01-.352-1.679v-.123A3.789 3.789 0 01126.5-4.9a2.729 2.729 0 011.008-1.143 2.849 2.849 0 011.559-.416 2.887 2.887 0 011.57.413 2.709 2.709 0 011.008 1.14 3.8 3.8 0 01.352 1.676v.123a3.822 3.822 0 01-.352 1.679 2.692 2.692 0 01-1 1.14 2.877 2.877 0 01-1.569.411zm0-1.137a1.223 1.223 0 00.812-.267 1.594 1.594 0 00.478-.738 3.416 3.416 0 00.158-1.087v-.123a3.368 3.368 0 00-.158-1.078 1.6 1.6 0 00-.48-.738 1.235 1.235 0 00-.82-.27 1.218 1.218 0 00-.809.27 1.584 1.584 0 00-.478.738 3.427 3.427 0 00-.155 1.078v.123a3.475 3.475 0 00.155 1.087 1.555 1.555 0 00.48.738 1.247 1.247 0 00.817.267zM132.855 0v-.9l.885-.176v-4.209h-.967V-6.34h.967v-.744a2.16 2.16 0 01.577-1.611 2.2 2.2 0 011.614-.568 3.776 3.776 0 01.516.038 4.539 4.539 0 01.5.1l-.147 1.104a2.61 2.61 0 00-.3-.05 3.184 3.184 0 00-.357-.021.894.894 0 00-.7.258 1.088 1.088 0 00-.231.75v.744h1.418v1.055h-1.418v4.207l1.107.176V0zm7.445 0v-.9l.926-.176v-6.371l-.926-.176v-.908h3.041l2.5 6.17h.035l2.426-6.17h3.076v.908l-.932.176v6.369l.932.176V0h-3.334v-.9l.979-.176v-1.988l.012-3.732L149-6.8l-2.639 6.607h-1.072l-2.719-6.575-.029.006.076 3.6v2.086l1.014.176V0zm13.969.123a2.136 2.136 0 01-1.506-.5 1.774 1.774 0 01-.539-1.371 1.736 1.736 0 01.328-1.049 2.136 2.136 0 01.961-.706 4.112 4.112 0 011.535-.255h.967v-.533a1.079 1.079 0 00-.3-.8 1.193 1.193 0 00-.876-.3 1.938 1.938 0 00-.58.079 1.527 1.527 0 00-.451.226l-.135.855h-1.084l-.012-1.564a4.183 4.183 0 011.043-.483 4.286 4.286 0 011.277-.179 2.927 2.927 0 011.9.565 1.969 1.969 0 01.694 1.62v3.047q0 .123.015.24l.645.082V0h-1.928q-.059-.205-.108-.4a2.993 2.993 0 01-.073-.387 2.621 2.621 0 01-.765.653 2.008 2.008 0 01-1.011.257zm.331-1.143a1.73 1.73 0 00.832-.208 1.479 1.479 0 00.58-.524v-1.06h-.984a1.436 1.436 0 00-1 .308.945.945 0 00-.337.718.7.7 0 00.234.568 1.013 1.013 0 00.675.198zM158.836 0v-.9l.879-.176v-4.18l-.926-.176v-.908h2.285l.076.92a2.3 2.3 0 01.788-.765 2.1 2.1 0 011.069-.272 1.952 1.952 0 011.523.6 2.734 2.734 0 01.545 1.878v2.9l.879.176V0h-3.182v-.9l.826-.176v-2.891a1.464 1.464 0 00-.287-1.022 1.127 1.127 0 00-.855-.3 1.431 1.431 0 00-.747.19 1.468 1.468 0 00-.519.53v3.492l.8.176V0zm9.879.123a2.136 2.136 0 01-1.506-.5 1.774 1.774 0 01-.539-1.371 1.736 1.736 0 01.33-1.047 2.136 2.136 0 01.961-.706 4.112 4.112 0 011.535-.255h.967v-.533a1.079 1.079 0 00-.3-.8 1.193 1.193 0 00-.876-.3 1.938 1.938 0 00-.58.079 1.527 1.527 0 00-.451.226l-.135.855h-1.084l-.012-1.564a4.183 4.183 0 011.043-.483 4.286 4.286 0 011.277-.179 2.927 2.927 0 011.9.565 1.969 1.969 0 01.694 1.62v3.047q0 .123.015.24l.646.083V0h-1.928q-.059-.205-.108-.4a2.993 2.993 0 01-.073-.387 2.621 2.621 0 01-.765.653 2.008 2.008 0 01-1.011.257zm.334-1.143a1.73 1.73 0 00.832-.208 1.479 1.479 0 00.58-.524v-1.06h-.984a1.436 1.436 0 00-1 .308.945.945 0 00-.337.718.7.7 0 00.234.568 1.013 1.013 0 00.675.198zm7.066 3.58a4.867 4.867 0 01-1.04-.126 4.153 4.153 0 01-1-.349l.3-1.078a4.456 4.456 0 00.826.275 3.762 3.762 0 00.855.105 1.312 1.312 0 001.063-.4 1.715 1.715 0 00.337-1.134v-.5a1.971 1.971 0 01-.7.571 2.094 2.094 0 01-.926.2 2.286 2.286 0 01-1.33-.388 2.435 2.435 0 01-.855-1.084 4.112 4.112 0 01-.3-1.617v-.123a4.84 4.84 0 01.3-1.77 2.653 2.653 0 01.85-1.178 2.117 2.117 0 011.321-.422 2.045 2.045 0 011.008.237 2.119 2.119 0 01.727.677l.111-.8h1.271v6.2a2.925 2.925 0 01-.334 1.433 2.286 2.286 0 01-.967.938 3.236 3.236 0 01-1.517.334zm.117-3.6a1.389 1.389 0 00.729-.182 1.39 1.39 0 00.5-.527v-2.827a1.478 1.478 0 00-.5-.524 1.332 1.332 0 00-.721-.19 1.16 1.16 0 00-.8.278 1.638 1.638 0 00-.463.773 4 4 0 00-.149 1.151v.123a2.553 2.553 0 00.337 1.4 1.18 1.18 0 001.067.522zm2.5-4.184l-.621-1.113h1.589v.908zm4.43 5.35a2.964 2.964 0 01-1.562-.4 2.734 2.734 0 01-1.031-1.11 3.486 3.486 0 01-.366-1.623v-.246a3.651 3.651 0 01.36-1.649 2.832 2.832 0 01.993-1.137A2.578 2.578 0 01183-6.457a2.789 2.789 0 011.444.346 2.2 2.2 0 01.882.981 3.564 3.564 0 01.3 1.526v.844h-3.891l-.012.029a2.285 2.285 0 00.208.885 1.459 1.459 0 00.527.609 1.5 1.5 0 00.835.223 2.952 2.952 0 00.938-.141 2.882 2.882 0 00.779-.4l.463.926a3.212 3.212 0 01-.955.533 3.858 3.858 0 01-1.354.219zM181.758-3.8h2.455v-.152a1.947 1.947 0 00-.126-.729 1.029 1.029 0 00-.393-.489 1.206 1.206 0 00-.677-.176 1.026 1.026 0 00-.627.2 1.4 1.4 0 00-.431.542 2.65 2.65 0 00-.22.776zm4.664 3.8v-.9l.885-.176v-4.18l-.932-.176v-.908h2.285l.07.832a2.182 2.182 0 01.776-.7 2.259 2.259 0 011.081-.249 1.957 1.957 0 011.063.278 1.72 1.72 0 01.671.841 2.242 2.242 0 01.771-.82 2.071 2.071 0 011.122-.3 1.86 1.86 0 011.5.65 3 3 0 01.548 1.969v2.76l.885.176V0h-3.193v-.9l.832-.176v-2.768a1.784 1.784 0 00-.27-1.125.973.973 0 00-.791-.322 1.089 1.089 0 00-.8.311 1.482 1.482 0 00-.407.791v3.111l.8.176V0h-3.076v-.9l.8-.176v-2.768a1.763 1.763 0 00-.275-1.11.97.97 0 00-.8-.337 1.406 1.406 0 00-.729.176 1.275 1.275 0 00-.472.5v3.539l.834.176V0zm14.32.123a2.964 2.964 0 01-1.562-.4 2.734 2.734 0 01-1.031-1.11 3.486 3.486 0 01-.366-1.623v-.246a3.651 3.651 0 01.36-1.649 2.832 2.832 0 01.993-1.137 2.578 2.578 0 011.441-.413 2.789 2.789 0 011.444.346 2.2 2.2 0 01.882.981 3.564 3.564 0 01.3 1.526v.844h-3.891l-.012.029a2.285 2.285 0 00.208.885 1.459 1.459 0 00.527.609 1.5 1.5 0 00.835.223 2.952 2.952 0 00.938-.141 2.882 2.882 0 00.779-.4l.463.926a3.212 3.212 0 01-.955.533 3.858 3.858 0 01-1.353.217zM199.336-3.8h2.455v-.152a1.947 1.947 0 00-.126-.729 1.029 1.029 0 00-.393-.489 1.206 1.206 0 00-.677-.176 1.026 1.026 0 00-.627.2 1.4 1.4 0 00-.431.542 2.65 2.65 0 00-.22.776zM204 0v-.9l.879-.176v-4.18l-.926-.176v-.908h2.285l.076.92a2.3 2.3 0 01.788-.765 2.1 2.1 0 011.069-.272 1.952 1.952 0 011.523.6 2.734 2.734 0 01.545 1.878v2.9l.879.176V0h-3.182v-.9l.826-.176v-2.891a1.464 1.464 0 00-.287-1.022 1.127 1.127 0 00-.855-.3 1.431 1.431 0 00-.747.19 1.468 1.468 0 00-.519.53v3.492l.8.176V0zm9.955.111a1.7 1.7 0 01-1.26-.454 1.994 1.994 0 01-.451-1.45v-3.492h-.926V-6.34h.926v-1.541h1.471v1.541h1.254v1.055h-1.254v3.492a.862.862 0 00.167.589.582.582 0 00.454.185 2.575 2.575 0 00.366-.029q.2-.029.325-.059l.153 1.037a4.7 4.7 0 01-.589.129 4.043 4.043 0 01-.636.052z" data-name="Path 11848" transform="translate(98.124 1100.47)" fill="#58595b"/><path id="prefix__Path_11788" d="M34.86 4.27l-.16.05c-.71.09-.71.09-1-.55-.17-.38-.17-.37-.6-.34s-.69.06-1 .07a.38.38 0 00-.42.34 6.769 6.769 0 01-.2.7l-.86.07.1-.38L31.85.46c.09-.31.09-.32.41-.32.71 0 .52-.16.85.49.52 1.06 1 2.13 1.54 3.2l.21.44M32.5 1.2h-.09c-.15.51-.3 1-.46 1.6l1.25-.08c-.25-.56-.46-1-.7-1.53" class="prefix__cls-2" data-name="Path 11788" transform="translate(17.914 1030)"/><path id="prefix__Path_11789" d="M37 2.92a1.611 1.611 0 113.22-.11 1.58 1.58 0 01-1.58 1.7A1.51 1.51 0 0137 2.92m2.43-.09a1.469 1.469 0 000-.21.77.77 0 00-1.51-.16 1.37 1.37 0 000 .85.76.76 0 00.69.57.74.74 0 00.76-.49 3.16 3.16 0 00.13-.55" class="prefix__cls-2" data-name="Path 11789" transform="translate(17.914 1030)"/><path id="prefix__Path_11790" d="M41.56 4.89l-.75-.17c.23-1 .46-2 .7-3l.68.14v.41l.33-.15a1.22 1.22 0 011.25.13.74.74 0 01.35.66 2.73 2.73 0 01-.05.5c-.13.58-.26 1.16-.4 1.74a1.11 1.11 0 01-.08.24l-.74-.17.31-1.39a4.66 4.66 0 00.12-.63c0-.35-.07-.53-.34-.62a.63.63 0 00-.75.24 1.42 1.42 0 00-.17.4c-.12.48-.23 1-.35 1.46l-.08.25" class="prefix__cls-2" data-name="Path 11790" transform="translate(17.914 1030)"/><path id="prefix__Path_11791" d="M35.43 0h.76c.05.72 0 1.43 0 2.13V4.3h-.79c0-1.43.07-2.84.06-4.3" class="prefix__cls-2" data-name="Path 11791" transform="translate(17.914 1030)"/><path id="prefix__Path_11792" d="M61.19 37.52a25.94 25.94 0 01-51.7.13 13.02 13.02 0 0025.09 2.16l-.5-.31a9.24 9.24 0 01-3.39-3.5 6.47 6.47 0 01-.83-3 6 6 0 01.88-3.35 12.46 12.46 0 011.14-1.56A15.94 15.94 0 0034.07 25a7.54 7.54 0 00.83-3 9.37 9.37 0 00-.23-2.24c-.1-.51-.17-1-.26-1.52v-.32a1.92 1.92 0 01.29.15 16.73 16.73 0 015.59 6.36 11.78 11.78 0 01-.47 11.2 10.84 10.84 0 01-2.44 2.66l-.94.77c-.1.09-.18.19-.28.28a.41.41 0 00-.1.51 13.038 13.038 0 0024.2.89 14.21 14.21 0 00.95-3.17" class="prefix__cls-2" data-name="Path 11792" transform="translate(17.914 1030)"/><path id="prefix__Path_11793" d="M6.43 45.09c-.08-.29-.16-.57-.25-.85l.15-.11a1.55 1.55 0 001-1.75A3.54 3.54 0 007 41.11a1.35 1.35 0 00-.71-.68 1 1 0 00-1.32.67 9.54 9.54 0 00-.14 1.31 10.457 10.457 0 01-.08 1.58 3.67 3.67 0 01-.13.66 2.06 2.06 0 01-3.15 1.13 2.69 2.69 0 01-1-1.28 4.45 4.45 0 01-.3-2.67 2.5 2.5 0 011.7-1.93h.17c.09.29.17.57.26.85a.94.94 0 01-.17.11A1.76 1.76 0 001 42.42a3 3 0 00.61 2.29 1.19 1.19 0 001 .47 1 1 0 00.92-.64 3.17 3.17 0 00.2-.86 10.858 10.858 0 01.08-1.58A6.39 6.39 0 014 40.87a1.78 1.78 0 011.69-1.45 2 2 0 011.87.93 3.91 3.91 0 01.61 1.59 3.61 3.61 0 010 1.39 2.19 2.19 0 01-1.72 1.76" class="prefix__cls-2" data-name="Path 11793" transform="translate(17.914 1030)"/><path id="prefix__Path_11794" d="M9.18 51.29l-.54.45v.08a2.09 2.09 0 011.72.8 1.62 1.62 0 01.24 1.89h.4a2 2 0 011.66 1 1.5 1.5 0 01-.18 1.91 3 3 0 01-.37.34c-1 .79-2 1.57-3 2.35l-.19.12-.56-.7.29-.24 2.43-1.9a4.88 4.88 0 00.59-.52.87.87 0 00.16-1.09 1.33 1.33 0 00-1.75-.65 3 3 0 00-.62.36l-2.3 1.89-.33.24-.55-.71.29-.25c.84-.65 1.68-1.3 2.51-2a3.53 3.53 0 00.59-.57.86.86 0 000-1.06 1.34 1.34 0 00-1.67-.5 4.78 4.78 0 00-.88.55c-.68.51-1.36 1.05-2 1.58l-.33.25-.57-.72 4.51-3.53c.18.22.33.41.52.63" class="prefix__cls-2" data-name="Path 11794" transform="translate(17.914 1030)"/><path id="prefix__Path_11795" d="M20.77 14.15l.54.69-.6.52 3 3.81a1.13 1.13 0 01-.26.07h-.42a.7.7 0 01-.75-.34c-.67-.89-1.36-1.76-2-2.63l-.35-.27a4.28 4.28 0 00-1.13 1l3.39 3.51c-.41.06-.74.13-1.08.17a.468.468 0 01-.26-.15c-.39-.39-.76-.79-1.15-1.19-.08-.08-.16-.16-.29-.27l-1 1.11.8.74a.4.4 0 01-.39.2h-1.29a.45.45 0 01-.49-.29.53.53 0 01.13-.59c.46-.5.91-1 1.36-1.52.08-.08.16-.18.26-.3l-.71-.73c-.85.73-1.5 1.61-2.29 2.41l-.66-.59 1.72-1.92.27.18-.12-.35a26.42 26.42 0 013.79-3.27" class="prefix__cls-2" data-name="Path 11795" transform="translate(17.914 1030)"/><path id="prefix__Path_11796" d="M42.94 12a7.018 7.018 0 00.08.76l-.78.08a1.55 1.55 0 00-.31.07.38.38 0 00-.3.43.4.4 0 00.35.4 3.67 3.67 0 00.74 0 2.3 2.3 0 00.42-.12v.4a9.76 9.76 0 00.8-2.17L41.21 11l.24-.84h.26l1.69.48 1.38.39c-.13-.16-.21-.3-.32-.41a5.72 5.72 0 00-1.82-1.3.44.44 0 01-.33-.48 3.785 3.785 0 00-.06-.78 8.44 8.44 0 011 .49 8.55 8.55 0 01.86.78 1 1 0 000-.22c-.1-.31-.21-.61-.32-.92a.71.71 0 00-.41-.5.3.3 0 01-.14-.19 4.522 4.522 0 00-.08-1 7.79 7.79 0 011 .48 1 1 0 01.32.5c.17.53.33 1.07.46 1.62s.25 1.19.34 1.79a.467.467 0 00.43.52.91.91 0 01.2.1l-.28.82-.75-.24c-.32.75-.56 1.52-.85 2.27s-.54 1.5-.84 2.32c-.24-.33-.44-.59-.62-.87a.45.45 0 010-.3c.09-.3.21-.6.33-1h-.45A1.41 1.41 0 0141 13.25a1 1 0 01.48-1 2.14 2.14 0 011.46-.25" class="prefix__cls-2" data-name="Path 11796" transform="translate(17.914 1030)"/><path id="prefix__Path_11797" d="M32.93 10.43a.525.525 0 00-.06-.3c-.06-.1 0-.35 0-.56l1.13-.1.89-.06a.65.65 0 01.54.1c.06.05.19 0 .28 0h2a1.91 1.91 0 010 .89h-.75v4.4a.54.54 0 00.25.5 1.24 1.24 0 01.4 1.45 1.11 1.11 0 01-1.13.81 1.79 1.79 0 01-1.24-.39 4 4 0 01-.52-.49 11.33 11.33 0 01-1.08-1.53.51.51 0 01.66.24 4.27 4.27 0 001 1.14 1.38 1.38 0 001.33.32.59.59 0 00.47-.56.47.47 0 00-.66-.5 2.29 2.29 0 00-.41.28 2.151 2.151 0 00-.24.26l-.46-.67a1.17 1.17 0 011.17-.61c0-.18-.16-.22-.26-.28a.46.46 0 01-.23-.45v-2.15a14.143 14.143 0 00-1.62.14.47.47 0 00-.38.56 1.8 1.8 0 00.17.51 4.2 4.2 0 00.82 1.25l.28.24-.35.26a1.75 1.75 0 01-.2-.16c-.34-.4-.7-.79-1-1.21a2.35 2.35 0 01-.47-1.47.87.87 0 01.26-.69.68.68 0 01.36-.2c.64-.07 1.28-.11 2-.17a4.515 4.515 0 00.08.58 3.6 3.6 0 000-1.36h-.55a.88.88 0 00-.69-.08l-1.5.1h-.29" class="prefix__cls-2" data-name="Path 11797" transform="translate(17.914 1030)"/><path id="prefix__Path_11798" d="M46.34 64.72L45.43 62l.87-.3 2.58 7.5-.79.27c-.09-.2-.16-.38-.25-.6-.06.11-.1.17-.13.24a2.08 2.08 0 01-2.05 1.16 2.51 2.51 0 01-1.93-1.2 4.12 4.12 0 01-.7-2.62 2.18 2.18 0 013.06-1.87.475.475 0 01.25.1m-2.41 2.09a4 4 0 00.73 2 1.57 1.57 0 001.17.68 1.45 1.45 0 001.56-1.56 3.77 3.77 0 00-.83-2.22 1.51 1.51 0 00-1.67-.5 1.55 1.55 0 00-1 1.59" class="prefix__cls-2" data-name="Path 11798" transform="translate(17.914 1030)"/><path id="prefix__Path_11799" d="M41.17 63.22c.07.37.13.7.2 1l-.86.18c0-.07-.09-.13-.16-.23a.64.64 0 00-.06.11l-1.14 3.24c-.46 1.29-.91 2.57-1.36 3.86-.12.33-.12.33-.48.34h-.69L33.28 64l1.09-.05 2.74 6.92a.85.85 0 00.11-.21q1.08-3.3 2.17-6.6c.09-.29.1-.29.4-.31h.47a.628.628 0 01.06-.32l.85-.15" class="prefix__cls-2" data-name="Path 11799" transform="translate(17.914 1030)"/><path id="prefix__Path_11800" d="M59.59 62.62l-.27.24-.46.37-.56-.37c-.14.11-.12.28-.16.42a3 3 0 01-1.49 1.84 1.67 1.67 0 01-1 .23 1.61 1.61 0 01-1.33-2.14 2.68 2.68 0 01.59-.93l1.2-1.28c.09-.11.16-.23.27-.39-.16-.17-.3-.34-.47-.49a.77.77 0 00-.77-.17A2.27 2.27 0 0053.77 61a1 1 0 00-.06.73 1.555 1.555 0 00.13.43l-.76.45A1.73 1.73 0 0152.9 61a3.66 3.66 0 012.3-2 1.24 1.24 0 011.32.35 5.79 5.79 0 01.57.64c.32.38.62.78.95 1.17a5.13 5.13 0 001.55 1.49m-2.74-1.46c-.25.32-.45.6-.67.86s-.47.54-.71.81a1.88 1.88 0 00-.16.23.87.87 0 000 1 .9.9 0 001 .29 2 2 0 001.24-1.7 2.37 2.37 0 00-.76-1.53" class="prefix__cls-2" data-name="Path 11800" transform="translate(17.914 1030)"/><path id="prefix__Path_11801" d="M24.87 66l-.8-.36a1.8 1.8 0 011.65-1.13 4 4 0 012.32.62 1.35 1.35 0 01.65 1.63c-.19.78-.43 1.56-.64 2.35a10.681 10.681 0 00-.26 1.15 4.47 4.47 0 000 .74l-.55-.15c-.39-.11-.41-.13-.38-.55v-.22a.413.413 0 00-.41.09A3 3 0 0124 70a1.6 1.6 0 01.73-3 8.109 8.109 0 011.17 0l1.39.14c.31 0 .33 0 .42-.31a1 1 0 00-.57-1.3 4.2 4.2 0 00-1-.3 1.06 1.06 0 00-1 .4l-.26.33m2.52 1.94a.79.79 0 00-.17 0l-1.6-.13a4.329 4.329 0 00-.72 0 .8.8 0 00-.77.63.82.82 0 00.33.95 2 2 0 00.71.3 1.68 1.68 0 001.82-.59 3 3 0 00.44-1.13" class="prefix__cls-2" data-name="Path 11801" transform="translate(17.914 1030)"/><path id="prefix__Path_11802" d="M14 64.79l-.71-.63.27-.66h-.44a2.89 2.89 0 01-2.22-1.34 1.57 1.57 0 01.93-2.4 1.75 1.75 0 011.25.15c.29.15.56.33.84.49s.83.52 1.25.76.31.14.51-.1a1 1 0 000-1.45 4 4 0 00-.69-.62 1.1 1.1 0 00-1.25-.07l-.28.15c-.19-.22-.37-.44-.58-.67a1.76 1.76 0 011.62-.43 3.78 3.78 0 012.26 1.75 1.34 1.34 0 01-.15 1.64c-.47.58-1 1.15-1.46 1.72l-.12.13a4.82 4.82 0 00-1 1.63m1-3l-.16-.11-1.44-.8a3.86 3.86 0 00-.57-.3.85.85 0 00-1.15.48.92.92 0 00.16.94 2 2 0 001 .71 1.55 1.55 0 001.66-.34c.18-.18.34-.37.54-.58" class="prefix__cls-2" data-name="Path 11802" transform="translate(17.914 1030)"/><path id="prefix__Path_11803" d="M65.73 47c-.12.26-.25.52-.38.79a1.85 1.85 0 01-1.07-1.76A4.08 4.08 0 0164.9 44a1.42 1.42 0 011.8-.7c.68.2 1.36.43 2 .64a5.2 5.2 0 002.09.41c-.09.27-.17.51-.24.75a.23.23 0 01-.25.16h-.51a1.566 1.566 0 00.12.45 2.91 2.91 0 01-.19 2.29 1.55 1.55 0 01-1.75.87 1.58 1.58 0 01-1.28-1.56 9.238 9.238 0 01.1-1.17c.07-.5.15-1 .21-1.49 0-.3 0-.32-.27-.41a1 1 0 00-1.36.56 4.13 4.13 0 00-.32 1.05 1 1 0 00.33.87l.35.32m2-2.42a11.687 11.687 0 01-.14 1.34c-.05.44-.11.63-.13.95a.88.88 0 00.67 1 .9.9 0 001-.47 2.1 2.1 0 00.22-1.55 1.77 1.77 0 00-1.65-1.24" class="prefix__cls-2" data-name="Path 11803" transform="translate(17.914 1030)"/><path id="prefix__Path_11804" d="M66.73 54c-.14.28-.28.51-.43.8-2.3-1.26-4.63-2.54-6.95-3.8l.46-.81 2.47 1.37a.709.709 0 00-.06-.39 2.36 2.36 0 011-2.37 1.42 1.42 0 011.23-.18 3.74 3.74 0 01.8.33l3.1 1.71.18.12-.43.79-.34-.17L65 49.83a2.79 2.79 0 00-.59-.26 1.06 1.06 0 00-1.16.36 1.48 1.48 0 00.23 2.19 16.381 16.381 0 001.72 1l1.35.75.2.13" class="prefix__cls-2" data-name="Path 11804" transform="translate(17.914 1030)"/><path id="prefix__Path_11805" d="M55.85 25.54l-.39.19c-.26.12-.45 0-.46-.29a.49.49 0 010-.21c.11-.37.22-.73.35-1.09a.58.58 0 01.18-.26c.25-.23.41-.2.59.08l.15.21 1.21-.67a9.611 9.611 0 00-.75-1.27l-4.13 2.58v-.84a.47.47 0 01.28-.49c1-.6 2-1.22 2.94-1.84l.36-.24-.32-.59.74-.47a45.481 45.481 0 012.59 4.36l-.76.42-.43-.78-1.26.66c.22.4.42.77.64 1.19l-.86.49c-.23-.39-.44-.76-.67-1.17" class="prefix__cls-2" data-name="Path 11805" transform="translate(17.914 1030)"/><path id="prefix__Path_11806" d="M21.15 13.78l1.33-.78 1.33-.75a1.09 1.09 0 00-.18-.15c-.37-.16-.74-.34-1.12-.47a1.25 1.25 0 00-1.14.1.47.47 0 01-.64-.07 6.21 6.21 0 00-.58-.45 2.24 2.24 0 011.85-.37 10.13 10.13 0 012.15 1 .41.41 0 00.58 0l.44.78-.79.47.84 1.54-.71.39-.46.26a.67.67 0 00-.25 1 .93.93 0 001.38.17.41.41 0 00-.07-.11.55.55 0 01-.11-.71.69.69 0 01.71-.38.47.47 0 01.26.11 1.08 1.08 0 01.38 1.09.55.55 0 000 .13 2.16 2.16 0 01.87.57l-.53.31L26 17a.34.34 0 00-.34 0 2 2 0 01-2.57-.75 2.38 2.38 0 01-.27-.73.78.78 0 01.47-.91l.62-.35.08-.1-.39-.72-2 1.1c-.15-.26-.28-.51-.43-.78" class="prefix__cls-2" data-name="Path 11806" transform="translate(17.914 1030)"/><path id="prefix__Path_11807" d="M4.55 51.92a2.19 2.19 0 01-1.43-.54 2.87 2.87 0 01-1-2A2.33 2.33 0 013 47.25a4.16 4.16 0 012.27-1 2.24 2.24 0 011.51.35A2.89 2.89 0 018 49.46a2.36 2.36 0 01-.63 1.26 4.28 4.28 0 01-2.84 1.2m.93-4.7a3.4 3.4 0 00-2.15 1A1.54 1.54 0 003 50a1.51 1.51 0 001.53 1 3.17 3.17 0 002.24-1 1.54 1.54 0 00.33-1.8 1.61 1.61 0 00-1.62-1" class="prefix__cls-2" data-name="Path 11807" transform="translate(17.914 1030)"/><path id="prefix__Path_11808" d="M13.49 23.65l-.38.56-.74-.45a27 27 0 012.7-4.09l.7.5-.45.67 3.94 2.87a5.21 5.21 0 01-1 .36.774.774 0 01-.34-.15l-2.78-2-.37-.25a6.12 6.12 0 00-.77 1.12l4.16 2.5a4 4 0 01-1 .48.746.746 0 01-.32-.12l-2.9-1.75-.45-.25" class="prefix__cls-2" data-name="Path 11808" transform="translate(17.914 1030)"/><path id="prefix__Path_11809" d="M47.5 63.7l.87-.46L52 66.51a.929.929 0 000-.14c-.19-1.19-.37-2.39-.55-3.58a5.342 5.342 0 00-.13-.88.27.27 0 01.16-.32l.63-.32c.08.57.16 1.1.23 1.63.21 1.59.42 3.17.62 4.76a9.269 9.269 0 01.04 1.39 1.42 1.42 0 01-1 1.4c-.26.07-.29.06-.44-.16s-.2-.29-.32-.47l.37-.15a1 1 0 00.66-1.07 1.49 1.49 0 00-.58-1.23c-1.32-1.11-2.6-2.26-3.89-3.4a2.65 2.65 0 01-.25-.24" class="prefix__cls-2" data-name="Path 11809" transform="translate(17.914 1030)"/><path id="prefix__Path_11810" d="M19.9 61.8l.88.47c-.24 1.6-.47 3.19-.71 4.81l3.61-3.27.78.41a1.28 1.28 0 01-.16.21q-2.55 2.25-5.11 4.49a3.53 3.53 0 01-.89.59 1.38 1.38 0 01-1.53-.27.29.29 0 01-.11-.37l.24-.59.37.25a1 1 0 001.26-.09 1.59 1.59 0 00.68-1.18c.16-1.6.39-3.2.59-4.8l.1-.66" class="prefix__cls-2" data-name="Path 11810" transform="translate(17.914 1030)"/><path id="prefix__Path_11811" d="M49.75 14.51l.55-.46.31.23L52 15.36c.11.09.21.17.11.33l.21-.12 2.2 2.05-.59.65a30 30 0 00-3-2.53c-1 1.26-2 2.53-3 3.85-.13-.39-.25-.7-.33-1a.46.46 0 01.1-.29c.18-.25.37-.49.59-.77l-.25-.05a1.45 1.45 0 01-.81-2.21 1.1 1.1 0 011.23-.44c.65.15.72.24.67.89a.436.436 0 01-.05.23 1.61 1.61 0 00-.38-.14 4 4 0 00-.77-.13.63.63 0 00-.38.15.29.29 0 000 .51 1.19 1.19 0 00.73.25h.75l1.14-1.46-.39-.31c-.09-.08-.18-.16-.08-.29z" class="prefix__cls-2" data-name="Path 11811" transform="translate(17.914 1030)"/><path id="prefix__Path_11812" d="M27.09 10.92c.1.19.17.33.23.46h.05a2.127 2.127 0 00-.11-.5 12.71 12.71 0 012.37-.67l.22.79-.75.25c.44 1.55.87 3.08 1.32 4.65a4.29 4.29 0 01-1-.3c-.06 0-.11-.15-.13-.23-.09-.26-.16-.52-.25-.82a3.72 3.72 0 01-.31.22 1.43 1.43 0 01-2.16-.85 1.32 1.32 0 01.95-1.48.34.34 0 01.2 0l.53.45c-.2.13-.37.23-.53.35a1.19 1.19 0 00-.47.61.43.43 0 00.09.47c.14.12.29.07.44 0a1.63 1.63 0 00.67-.63c.07-.12.15-.23.25-.39-.16-.57-.34-1.19-.53-1.85-.91.32-1.75.72-2.66 1-.11-.26-.22-.52-.34-.82l1.95-.79" class="prefix__cls-2" data-name="Path 11812" transform="translate(17.914 1030)"/><path id="prefix__Path_11813" d="M50.24 21.25a.35.35 0 01-.39-.36 6.9 6.9 0 01.13-2 1.72 1.72 0 01.79-1.07.94.94 0 011.51.78v.24c.77 0 1 .17.92.93l.34-.12c.09.11.19.21.28.33.25.33.87.13 1-.24a.4.4 0 00-.1-.4l-.53-.66.67-.56c.55.61 1 1.26 1.58 1.91l-.68.57-.44-.49-.19.22a1.68 1.68 0 01-1 .64 1.23 1.23 0 01-.82-.15.42.42 0 000 .59 1.52 1.52 0 00.78.54 2.931 2.931 0 01.51.13 10 10 0 01-.84.68.32.32 0 01-.23 0 1.44 1.44 0 01-.94-1.9A7.819 7.819 0 0153 20c-.25-.42-.54-.46-.88-.11l-.62.66c-.12-.26-.21-.48-.33-.73l.48-.52c.13-.14.27-.26.15-.47a.59.59 0 00-.61-.28.9.9 0 00-.57.51 3.69 3.69 0 00-.31 1.35 3.392 3.392 0 01-.08.89" class="prefix__cls-2" data-name="Path 11813" transform="translate(17.914 1030)"/><path id="prefix__Path_11814" d="M56.21 58l.65-.71 4.42 1.91a5.371 5.371 0 00-.41-.87c-.14-.29-.29-.57-.44-.86l-.43-.84c-.14-.29-.29-.57-.44-.86s-.29-.57-.44-.88c.22-.23.42-.44.64-.69l.3.58 2.26 4.6c.16.32.16.32-.08.58-.42.44-.29.41-.83.19l-4.87-2-.33-.15" class="prefix__cls-2" data-name="Path 11814" transform="translate(17.914 1030)"/><path id="prefix__Path_11815" d="M4.71 23.33c.14.32.24.6.38.86a.65.65 0 00.28.2c.3.14.61.26 1 .4-.11.26-.2.5-.31.77C4.67 25 3.35 24.48 2 23.93l.31-.76 1.69.68.06-.07-.15-.34-.8-1.74a.51.51 0 010-.48c.11-.23.2-.48.32-.77l.21.42c.21.46.41.92.61 1.38.14.31.15.31.49.24L7 22h.48c-.14.34-.24.62-.36.88a.39.39 0 01-.27.14L5 23.27l-.27.06" class="prefix__cls-2" data-name="Path 11815" transform="translate(17.914 1030)"/><path id="prefix__Path_11816" d="M22.73 7.31l.75-.2a.24.24 0 01.16 0 .5.5 0 00.51 0c.51-.17.63-.42.45-.93a1.269 1.269 0 00-.16-.41 1.45 1.45 0 00-.15.23 1.15 1.15 0 01-1.75.37 1.93 1.93 0 01-.74-1.77 1.18 1.18 0 011.6-1l.23.07a.886.886 0 00-.06-.38l.62-.24a1.3 1.3 0 01.11.19c.32.82.65 1.65.95 2.48a4.12 4.12 0 01.19.86.77.77 0 01-.3.7 2.47 2.47 0 01-1.64.61.76.76 0 01-.77-.62m-.17-2.52a1.69 1.69 0 00.34.91.66.66 0 00.75.27.7.7 0 00.49-.71 1.42 1.42 0 00-.39-1 .67.67 0 00-.75-.1.69.69 0 00-.41.67" class="prefix__cls-2" data-name="Path 11816" transform="translate(17.914 1030)"/><path id="prefix__Path_11817" d="M9.3 13.33l.56-.53 1.79.94.06-.05c-.31-.6-.7-1.15-1-1.76l.52-.55 1.83 1a4.1 4.1 0 00-.49-1c-.16-.31-.33-.6-.51-.92l.48-.5a19.87 19.87 0 011.56 2.94l-.56.5-1.7-.93-.06.06c.31.57.67 1.11 1 1.7l-.53.57-3-1.47" class="prefix__cls-2" data-name="Path 11817" transform="translate(17.914 1030)"/><path id="prefix__Path_11818" d="M19.78 3.62l2.1 3.79-.6.36c-.08-.11-.16-.2-.25-.31 0 .07-.07.11-.09.17a1.2 1.2 0 01-2 .52 2.25 2.25 0 01-.78-1.41 1.23 1.23 0 011.42-1.4h.23L19.1 4l.68-.39m-.05 2.17a.7.7 0 00-.77.73 1.6 1.6 0 00.52 1 .67.67 0 001.14-.64 1.71 1.71 0 00-.49-.87 2.27 2.27 0 00-.4-.23" class="prefix__cls-2" data-name="Path 11818" transform="translate(17.914 1030)"/><path id="prefix__Path_11819" d="M54.73 10.44c-.12.12-.21.19-.31.28l-.54-.43c.87-1.14 1.76-2.26 2.66-3.41l.32.23.29.25-.91 1.2h.29a1.22 1.22 0 011.14 1.53 2.19 2.19 0 01-1.13 1.41 1.18 1.18 0 01-1.76-.89l-.05-.21m.44-.18a.64.64 0 001 .58 1.62 1.62 0 00.73-1 .6.6 0 00-.19-.65.63.63 0 00-.66-.15 1.5 1.5 0 00-.88 1.2" class="prefix__cls-2" data-name="Path 11819" transform="translate(17.914 1030)"/><path id="prefix__Path_11820" d="M71.2 41.91a6.034 6.034 0 01-.15.9l-5.65-1c.06-.28.1-.52.15-.79l.78.09c-.22-.27-.42-.47-.57-.7a1 1 0 01-.09-.83 1.7 1.7 0 01.45-.77l.76.44-.15.28a1 1 0 00.48 1.47 4.55 4.55 0 001.08.35c.85.17 1.72.31 2.57.46a2.581 2.581 0 01.34.08" class="prefix__cls-2" data-name="Path 11820" transform="translate(17.914 1030)"/><path id="prefix__Path_11821" d="M17 27v.56c-.2.07-.4.15-.62.21a.62.62 0 00-.47.43 1.25 1.25 0 01-.28.41.46.46 0 01-.52.13.56.56 0 01-.38-.43.83.83 0 01.49-.91.44.44 0 00.25-.5.266.266 0 00-.43-.24c-.22.13-.46.34-.69.51s-.38.33-.59.46a1.18 1.18 0 01-.5.19.54.54 0 01-.66-.63v-.1l.9-2.39a3.1 3.1 0 01.83.27c-.24.65-.48 1.27-.71 1.9h.06a1.9 1.9 0 01.24-.25 5.83 5.83 0 01.8-.61.77.77 0 011.13.33 5.16 5.16 0 01.3.77l.36-.06L17 27" class="prefix__cls-2" data-name="Path 11821" transform="translate(17.914 1030)"/><path id="prefix__Path_11822" d="M54.55 28.84c.09-.4.16-.71.22-1s.18-.19.29-.24l2.66-1.07 1-.41c-.07-.21-.13-.41-.2-.65l.8-.33c.32.77.61 1.5.93 2.29l-.82.34c-.11-.25-.21-.47-.32-.74l-2.24.91-2.3.92" class="prefix__cls-2" data-name="Path 11822" transform="translate(17.914 1030)"/><path id="prefix__Path_11823" d="M61.71 18.71c.06-.12.11-.21.16-.32l-.27-.12a1.31 1.31 0 01-.71-.77.86.86 0 01.26-1 .85.85 0 011.09 0c.19.14.35.32.53.48l.42.39a.45.45 0 00.12.06c.29-.18.35-.28.29-.5a.78.78 0 00-.78-.59 2.75 2.75 0 01-.14-.3 1.218 1.218 0 00-.11-.32 1 1 0 011 .18 2.44 2.44 0 01.7 1.06.76.76 0 01-.28.95c-.3.22-.61.41-.92.62a3.06 3.06 0 00-1 .83l-.4-.61m1.13-1.05a7.92 7.92 0 00-.69-.61.37.37 0 00-.59.3.63.63 0 00.14.42c.28.36.71.31 1.14-.11" class="prefix__cls-2" data-name="Path 11823" transform="translate(17.914 1030)"/><path id="prefix__Path_11824" d="M9.19 14.54a1.72 1.72 0 011.68 1.67 1.7 1.7 0 01-1.62 1.63 1.75 1.75 0 01-1.7-1.65 1.68 1.68 0 011.64-1.65m-.19.75a.75.75 0 00-.73 1 1.33 1.33 0 001.11.79.74.74 0 00.7-1A1.33 1.33 0 009 15.29" class="prefix__cls-2" data-name="Path 11824" transform="translate(17.914 1030)"/><path id="prefix__Path_11825" d="M17.54 8.88l.67-.3A1.17 1.17 0 0118 9.69a1.68 1.68 0 01-1 .65 1.27 1.27 0 01-1.18-.26 2.12 2.12 0 01-.77-1.25 1.27 1.27 0 01.52-1.36 1.34 1.34 0 011.47-.19 2.09 2.09 0 01.96.82c-.55.43-1.14.78-1.68 1.2a.71.71 0 00.86.37c.31-.1.41-.31.4-.79m-.58-.7c-.33-.43-.7-.51-1-.25a.62.62 0 000 1l1-.7" class="prefix__cls-2" data-name="Path 11825" transform="translate(17.914 1030)"/><path id="prefix__Path_11826" d="M26.42 4.28c.14.44.37.64.69.65s.49-.15.65-.61l.74-.06a1.22 1.22 0 01-.53 1 1.89 1.89 0 01-1 .31 1.2 1.2 0 01-.97-.44 2 2 0 01-.47-1.83 1.3 1.3 0 011.09-1 1.32 1.32 0 011.44.56 1.75 1.75 0 01.34.88l-2 .55m1.11-.8c-.18-.54-.52-.73-.91-.56a.61.61 0 00-.27.88l1.18-.32" class="prefix__cls-2" data-name="Path 11826" transform="translate(17.914 1030)"/><path id="prefix__Path_11827" d="M65.82 23.6L65 21.77a.64.64 0 00-.54.67c0 .36.18.51.71.64.06.21.13.43.19.67a1.05 1.05 0 01-1-.29 1.67 1.67 0 01-.53-1.14 1.51 1.51 0 01.15-.69 2.05 2.05 0 012.02-.91 1.45 1.45 0 01.68 2.35 2 2 0 01-.84.53m.08-.93c.45-.18.62-.53.46-.88s-.54-.45-1-.23c.17.37.34.74.52 1.11" class="prefix__cls-2" data-name="Path 11827" transform="translate(17.914 1030)"/><path id="prefix__Path_11828" d="M59.63 13.68l-1.42-1.46a.66.66 0 00-.29.82c.12.31.33.4.89.37l.25.36a1.71 1.71 0 01.13.23A1.06 1.06 0 0158 14a2.37 2.37 0 01-.59-.55 1.23 1.23 0 01-.1-1.42 2.09 2.09 0 011-1 1.44 1.44 0 011.81 2 2.4 2.4 0 01-.57.68m-.22-.91c.38-.37.4-.75.1-1a.63.63 0 00-.95.14c.27.29.55.58.85.88" class="prefix__cls-2" data-name="Path 11828" transform="translate(17.914 1030)"/><path id="prefix__Path_11829" d="M47.44 5.15l-1.93-.61a.66.66 0 00.12.85c.27.24.52.22.95-.09l.64.33a1.1 1.1 0 01-1.08.53 2.53 2.53 0 01-.81-.24 1.22 1.22 0 01-.71-1.19 2.22 2.22 0 01.47-1.33 1.35 1.35 0 011.54-.46 1.31 1.31 0 011 1.3 1.89 1.89 0 01-.17.91m-.62-.69a.64.64 0 00-.11-.79.55.55 0 00-.66-.13.54.54 0 00-.38.55l1.15.37" class="prefix__cls-2" data-name="Path 11829" transform="translate(17.914 1030)"/><path id="prefix__Path_11830" d="M8.72 19.71l-1.11-.64c-.21-.12-.43-.25-.65-.36a.612.612 0 00-.74.12.65.65 0 000 .85 2.18 2.18 0 00.48.32c.36.22.72.42 1.09.63l.28.19-.38.67L5 19.93l.33-.61.38.14v-.38a1.22 1.22 0 01.14-.72.92.92 0 011.35-.45c.66.34 1.29.72 2 1.11l-.4.69" class="prefix__cls-2" data-name="Path 11830" transform="translate(17.914 1030)"/><path id="prefix__Path_11831" d="M67.84 26.49l-.35-.61a.79.79 0 000-1c-.07-.12-.16-.23-.32-.17s-.17.14-.17.29v.57a5.219 5.219 0 010 .79.84.84 0 01-1.15.75 1.11 1.11 0 01-.56-.43 2.19 2.19 0 01-.29-1.44 1.1 1.1 0 01.51-.86c.13.23.24.44.36.67a.78.78 0 00-.13 1.05 1 1 0 00.15.2.27.27 0 00.47-.19 2.111 2.111 0 000-.35v-.93a.8.8 0 01.54-.8.84.84 0 011 .24 2.17 2.17 0 01.51 1.46.87.87 0 01-.45.76" class="prefix__cls-2" data-name="Path 11831" transform="translate(17.914 1030)"/><path id="prefix__Path_11832" d="M16.09 66.12l-.78-.51 3.12-4.81.78.51-3.12 4.81" class="prefix__cls-2" data-name="Path 11832" transform="translate(17.914 1030)"/><path id="prefix__Path_11833" d="M65.23 56.33l-.54.76L60 53.81l.53-.78 4.7 3.3" class="prefix__cls-2" data-name="Path 11833" transform="translate(17.914 1030)"/><path id="prefix__Path_11834" d="M42.68 71l-.91.16-1.1-5.61.92-.18c.37 1.89.72 3.73 1.09 5.63" class="prefix__cls-2" data-name="Path 11834" transform="translate(17.914 1030)"/><path id="prefix__Path_11835" d="M51.39 3.67l.73.4-1.74 3.16 1.9 1.08-.32.6-2.66-1.47 2.09-3.77" class="prefix__cls-2" data-name="Path 11835" transform="translate(17.914 1030)"/><path id="prefix__Path_11836" d="M63.74 20.87l-.47.36a5.481 5.481 0 01-.39-.48.7.7 0 01.25-1.09c.37-.24.76-.45 1.14-.68.12-.07.25-.14.38-.23a1.458 1.458 0 00-.11-.36l.47-.28.24.27a.26.26 0 00.14-.05.6.6 0 01.84 0c.09.07.19.12.34.22l-.91.54.24.5c-.16.1-.31.2-.49.3l-.34-.47-1.42.84a.23.23 0 00-.07.37l.16.22" class="prefix__cls-2" data-name="Path 11836" transform="translate(17.914 1030)"/><path id="prefix__Path_11837" d="M12.46 8.55l.61-.5 2.78 3.31-.6.52-2.79-3.33" class="prefix__cls-2" data-name="Path 11837" transform="translate(17.914 1030)"/><path id="prefix__Path_11838" d="M44.17 14.58c.18-.35.33-.66.49-1 .07-.13.19-.13.31-.1a1.21 1.21 0 01.85.65 2 2 0 01-.67 2.5.56.56 0 01-.73 0 .4.4 0 01.1-.71 2.23 2.23 0 00.51-.26 1.15 1.15 0 00.31-.38.44.44 0 00-.28-.65 2.41 2.41 0 00-.6-.08 1.21 1.21 0 00-.29 0" class="prefix__cls-2" data-name="Path 11838" transform="translate(17.914 1030)"/><path id="prefix__Path_11839" d="M59.63 15.77l-.5-.61 2.43-2 .44.53-.23.3a.843.843 0 01.77.26.73.73 0 01.19.51l-.6.23c-.05-.09-.08-.17-.12-.24a.49.49 0 00-.72-.24 4.25 4.25 0 00-.63.41c-.34.26-.67.53-1 .82" class="prefix__cls-2" data-name="Path 11839" transform="translate(17.914 1030)"/><path id="prefix__Path_11840" d="M10.86 27.43L12 24.38l.84.32c-.39 1-.78 2-1.17 3.05l-.84-.32" class="prefix__cls-2" data-name="Path 11840" transform="translate(17.914 1030)"/><path id="prefix__Path_11841" d="M54.18 6.7l.67.41-1.65 2.66-.67-.42 1.65-2.65" class="prefix__cls-2" data-name="Path 11841" transform="translate(17.914 1030)"/><path id="prefix__Path_11842" d="M53.51 27.26a1.34 1.34 0 01.74.76.71.71 0 010 .62 3.08 3.08 0 01-.35.58 10.827 10.827 0 01-.88 1c-.15.16-.16.16-.46 0 0-.08.09-.16.14-.23.27-.38.55-.76.81-1.14s.17-.34-.06-.56l-.52-.49.27-.31.3-.32" class="prefix__cls-2" data-name="Path 11842" transform="translate(17.914 1030)"/><path id="prefix__Path_11843" d="M47.64 13.55l-1.89-1c.14-.27.26-.51.4-.8l1.9 1-.41.81" class="prefix__cls-2" data-name="Path 11843" transform="translate(17.914 1030)"/><path id="prefix__Path_11844" d="M49.75 14.51c-.08.11-.18.07-.28 0l-1.63-1 .47-.76 1.78 1.11-.33.65" class="prefix__cls-2" data-name="Path 11844" transform="translate(17.914 1030)"/><path id="prefix__Path_11845" d="M59.07 53.15l-.88-.61.53-.76.88.61-.53.76" class="prefix__cls-2" data-name="Path 11845" transform="translate(17.914 1030)"/><path id="prefix__Path_11846" d="M19.63 59l.75.49a4.85 4.85 0 01-.56.91l-.82-.54.59-.91" class="prefix__cls-2" data-name="Path 11846" transform="translate(17.914 1030)"/><path id="prefix__Path_11847" d="M54.45 6.29l.38-.62.66.41-.37.62-.67-.41" class="prefix__cls-2" data-name="Path 11847" transform="translate(17.914 1030)"/></g></svg>